<svg xmlns="http://www.w3.org/2000/svg" xmlns:xlink="http://www.w3.org/1999/xlink" id="svg" version="1.1" width="400" height="81.70083523158694" viewBox="0, 0, 400,81.70083523158694" class="injected-svg" data-src="/static/leckerbissen-logo-0ba336506adeaa1a818fb78ec39d4030.svg"><g id="svgg"><path id="path0-3" d="M131.967 1.897 C 130.020 2.404,126.348 5.254,126.348 6.259 C 126.348 6.464,126.245 6.677,126.120 6.732 C 125.741 6.901,124.525 9.432,124.525 10.051 C 124.525 10.370,124.389 10.630,124.222 10.630 C 124.055 10.630,123.918 10.929,123.918 11.293 C 123.918 11.658,123.653 12.717,123.328 13.647 C 123.004 14.577,122.587 16.090,122.401 17.008 C 122.215 17.927,121.933 19.294,121.773 20.046 C 120.792 24.662,119.846 31.606,119.393 37.509 C 119.092 41.430,118.778 43.382,118.411 43.609 C 118.266 43.698,118.147 44.002,118.147 44.283 C 118.147 44.879,115.413 50.521,115.051 50.671 C 114.916 50.726,114.806 50.896,114.806 51.047 C 114.806 51.506,112.009 55.033,110.737 56.178 C 110.080 56.768,109.371 57.422,109.159 57.631 C 108.948 57.840,108.640 58.011,108.475 58.011 C 108.310 58.011,108.130 58.113,108.074 58.238 C 107.357 59.850,101.520 60.674,99.982 59.380 C 97.896 57.624,97.191 54.849,97.166 48.292 C 97.146 43.068,97.226 42.435,98.383 38.573 C 100.774 30.597,106.806 32.495,104.655 40.547 C 104.190 42.287,104.254 42.521,105.200 42.521 C 107.630 42.521,108.209 35.505,105.952 33.409 C 104.593 32.147,104.222 31.891,103.751 31.891 C 103.504 31.891,103.216 31.754,103.113 31.587 C 103.010 31.420,102.523 31.283,102.032 31.283 C 101.541 31.283,101.139 31.147,101.139 30.979 C 101.139 30.579,96.071 30.579,95.824 30.979 C 95.721 31.147,95.448 31.283,95.217 31.283 C 94.595 31.283,92.048 32.899,92.037 33.301 C 92.032 33.492,91.856 33.717,91.648 33.801 C 91.439 33.886,90.947 34.618,90.554 35.428 C 90.161 36.239,89.717 37.139,89.567 37.429 C 89.417 37.720,89.294 38.224,89.294 38.550 C 89.294 38.877,89.157 39.229,88.990 39.332 C 88.823 39.435,88.686 39.964,88.686 40.507 C 88.686 41.075,88.428 41.772,88.079 42.147 C 87.745 42.506,87.472 43.012,87.472 43.272 C 87.472 43.531,87.349 43.981,87.199 44.271 C 87.049 44.561,86.692 45.414,86.406 46.166 C 86.119 46.917,85.627 48.058,85.312 48.700 C 84.996 49.342,84.738 50.060,84.738 50.294 C 84.738 50.529,84.635 50.721,84.508 50.721 C 84.382 50.721,84.082 51.166,83.842 51.708 C 83.602 52.251,83.299 52.832,83.170 52.999 C 79.570 57.644,78.950 58.256,76.706 59.383 C 71.870 61.809,67.426 57.619,67.426 50.634 L 67.426 49.037 69.128 48.641 C 70.758 48.263,72.434 47.492,73.366 46.692 C 74.968 45.318,75.571 44.597,76.310 43.168 C 76.769 42.280,77.145 41.275,77.145 40.934 C 77.145 40.592,77.307 39.773,77.505 39.112 C 77.782 38.186,77.782 37.779,77.505 37.335 C 77.307 37.018,77.145 36.517,77.145 36.223 C 77.143 34.375,72.657 32.422,69.552 32.918 C 67.906 33.182,65.300 34.069,65.300 34.367 C 65.300 34.508,65.111 34.624,64.880 34.624 C 63.946 34.624,60.744 38.667,60.744 39.847 C 60.744 40.148,60.623 40.395,60.475 40.395 C 60.327 40.395,60.131 40.771,60.039 41.230 C 59.947 41.689,59.716 42.749,59.526 43.584 C 59.335 44.419,59.000 46.401,58.782 47.988 C 58.354 51.094,57.498 54.643,57.064 55.110 C 56.916 55.269,56.796 55.713,56.796 56.097 C 56.796 56.481,56.659 56.796,56.492 56.796 C 56.325 56.796,56.188 56.997,56.188 57.242 C 56.188 58.139,53.634 62.043,52.650 62.649 C 52.441 62.778,52.092 63.061,51.875 63.277 C 49.249 65.894,44.049 63.424,39.939 57.606 C 39.605 57.133,39.118 56.493,38.857 56.183 C 38.596 55.873,38.118 55.254,37.794 54.807 C 36.810 53.448,34.660 50.592,34.329 50.203 C 33.939 49.744,33.927 48.753,34.303 48.060 C 34.460 47.770,34.813 46.712,35.087 45.710 C 35.361 44.708,35.711 43.650,35.864 43.360 C 36.017 43.070,36.143 42.624,36.143 42.369 C 36.143 42.114,36.266 41.668,36.417 41.378 C 36.568 41.088,36.857 40.235,37.059 39.484 C 37.261 38.732,37.532 37.844,37.660 37.509 C 37.943 36.772,38.972 33.316,39.650 30.828 C 39.923 29.825,40.270 28.691,40.422 28.308 C 40.574 27.924,40.699 27.283,40.699 26.883 C 40.699 26.483,40.835 26.071,41.002 25.968 C 41.169 25.865,41.306 25.318,41.306 24.753 C 41.306 24.188,41.443 23.642,41.610 23.538 C 41.777 23.435,41.913 22.976,41.913 22.518 C 41.913 21.508,42.411 20.957,43.323 20.957 C 43.697 20.957,44.088 20.820,44.191 20.653 C 44.295 20.486,44.583 20.349,44.831 20.349 C 45.080 20.349,45.849 20.076,46.541 19.742 C 47.232 19.408,47.978 19.134,48.197 19.134 C 48.416 19.134,48.595 19.031,48.595 18.905 C 48.595 18.779,48.971 18.507,49.431 18.302 C 51.688 17.295,54.366 13.651,54.366 11.587 C 54.366 10.116,52.968 6.956,51.723 5.613 C 48.764 2.422,43.311 3.893,39.166 9.002 C 37.492 11.066,35.232 15.087,35.232 16.002 C 35.232 16.221,35.095 16.401,34.928 16.401 C 34.761 16.401,34.624 16.743,34.624 17.160 C 34.624 17.578,34.503 17.920,34.356 17.920 C 34.208 17.920,34.013 18.206,33.921 18.557 C 33.677 19.491,28.781 19.294,26.677 18.266 C 24.170 17.040,21.389 13.878,20.020 10.695 C 19.392 9.236,18.111 9.396,17.981 10.948 C 17.819 12.869,23.467 20.349,25.078 20.349 C 25.317 20.349,25.513 20.456,25.513 20.587 C 25.513 20.803,26.065 20.982,29.496 21.883 C 30.100 22.042,31.107 22.172,31.734 22.172 C 32.824 22.172,32.864 22.208,32.667 23.007 C 32.554 23.466,32.384 24.252,32.290 24.753 C 32.195 25.254,32.016 25.801,31.891 25.968 C 31.766 26.135,31.567 26.941,31.448 27.759 C 31.330 28.577,31.121 29.466,30.984 29.733 C 30.847 30.001,30.569 30.835,30.367 31.587 C 29.990 32.987,29.596 34.068,29.122 35.000 C 28.974 35.290,28.853 35.775,28.853 36.078 C 28.853 36.381,28.741 36.759,28.603 36.917 C 28.465 37.076,28.167 37.821,27.940 38.573 C 27.714 39.324,27.446 40.076,27.344 40.243 C 27.242 40.410,26.901 41.367,26.587 42.369 C 25.742 45.063,25.620 45.135,23.640 44.093 C 20.265 42.318,13.153 41.964,11.405 43.485 C 11.246 43.623,10.870 43.736,10.569 43.736 C 10.269 43.736,10.023 43.872,10.023 44.039 C 10.023 44.207,9.818 44.343,9.567 44.343 C 9.317 44.343,9.112 44.480,9.112 44.647 C 9.112 44.814,8.921 44.951,8.689 44.951 C 8.456 44.951,7.488 45.791,6.538 46.817 C -0.035 53.917,1.997 63.874,11.008 68.717 C 13.183 69.885,17.546 70.401,18.071 69.552 C 18.175 69.385,18.593 69.248,19.000 69.248 C 19.408 69.248,19.742 69.112,19.742 68.945 C 19.742 68.778,19.937 68.641,20.176 68.641 C 21.236 68.641,27.639 61.637,27.639 60.478 C 27.639 60.290,27.775 60.137,27.942 60.137 C 28.109 60.137,28.246 59.932,28.246 59.681 C 28.246 59.431,28.349 59.223,28.474 59.221 C 28.599 59.218,29.107 58.398,29.602 57.398 C 30.384 55.820,31.283 54.999,31.283 55.863 C 31.283 56.018,31.461 56.326,31.677 56.546 C 31.894 56.767,32.497 57.563,33.016 58.314 C 33.536 59.066,34.451 60.228,35.050 60.896 C 35.649 61.564,36.254 62.248,36.396 62.415 C 36.979 63.106,39.054 64.685,39.382 64.689 C 39.577 64.691,39.782 64.795,39.838 64.920 C 40.234 65.812,46.380 67.725,48.858 67.728 C 52.328 67.732,58.922 59.891,58.922 55.759 C 58.922 54.827,59.436 55.291,59.819 56.568 C 60.267 58.062,60.631 58.882,61.141 59.545 C 61.665 60.227,64.271 61.959,64.773 61.959 C 65.007 61.959,65.296 62.057,65.416 62.176 C 66.619 63.380,74.307 63.380,75.510 62.176 C 75.630 62.057,75.978 61.959,76.284 61.959 C 76.591 61.959,76.841 61.856,76.841 61.729 C 76.841 61.603,77.276 61.308,77.807 61.072 C 79.966 60.117,83.269 56.785,84.831 53.987 C 85.817 52.222,86.106 51.660,86.591 50.569 C 86.814 50.068,87.015 49.621,87.038 49.575 C 87.417 48.835,88.079 50.152,88.079 51.647 C 88.079 52.622,88.216 53.503,88.383 53.607 C 88.550 53.710,88.686 54.055,88.686 54.373 C 88.686 54.691,89.044 55.606,89.480 56.405 C 93.464 63.700,98.978 65.867,105.021 62.512 C 105.569 62.208,106.155 61.959,106.324 61.959 C 106.493 61.959,106.925 61.686,107.283 61.352 C 107.642 61.017,108.115 60.744,108.334 60.744 C 108.553 60.744,108.732 60.607,108.732 60.440 C 108.732 60.273,108.875 60.137,109.049 60.137 C 109.224 60.137,109.709 59.795,110.126 59.377 C 110.544 58.960,110.995 58.618,111.129 58.618 C 111.504 58.618,114.396 55.579,115.320 54.214 C 115.773 53.546,116.259 52.863,116.400 52.696 C 116.542 52.528,116.896 51.933,117.188 51.371 C 118.140 49.539,118.239 50.311,118.123 58.694 C 117.952 71.096,117.870 70.056,119.116 71.232 C 121.414 73.400,124.457 73.885,125.318 72.222 C 125.837 71.217,125.833 70.655,125.244 63.705 C 125.034 61.218,125.310 60.703,126.060 62.187 C 126.804 63.661,128.544 66.360,128.817 66.464 C 128.962 66.520,129.082 66.725,129.082 66.920 C 129.085 67.993,135.832 73.804,137.075 73.804 C 137.289 73.804,137.619 73.959,137.809 74.149 C 138.279 74.619,144.046 74.619,144.203 74.149 C 144.266 73.959,144.513 73.804,144.752 73.804 C 145.644 73.804,147.720 72.282,148.983 70.702 C 150.734 68.511,152.724 63.777,153.232 60.592 C 153.572 58.463,153.634 58.420,154.628 59.626 C 155.134 60.241,155.744 60.744,155.983 60.744 C 156.221 60.744,156.416 60.849,156.416 60.976 C 156.416 61.761,161.112 63.143,163.837 63.160 C 169.206 63.195,176.770 58.197,178.527 53.455 C 178.619 53.204,178.774 52.931,178.869 52.847 C 179.172 52.583,180.636 49.388,180.817 48.595 C 181.162 47.090,181.663 46.716,182.647 47.230 C 183.125 47.480,183.706 47.684,183.938 47.684 C 184.169 47.684,184.358 47.793,184.358 47.925 C 184.358 48.357,187.968 48.984,189.299 48.783 C 190.006 48.676,191.097 48.507,191.724 48.407 C 192.867 48.224,193.251 48.642,192.608 49.370 C 192.468 49.528,192.179 50.478,191.965 51.481 C 191.752 52.483,191.458 53.713,191.312 54.214 C 190.343 57.539,190.549 67.653,191.631 69.892 C 191.974 70.603,192.255 71.342,192.255 71.534 C 192.255 71.726,192.836 72.418,193.546 73.071 C 198.085 77.250,205.189 75.195,208.504 68.743 C 209.005 67.768,209.518 66.925,209.643 66.869 C 209.768 66.813,209.871 66.514,209.871 66.204 C 209.871 65.893,210.008 65.555,210.175 65.452 C 210.342 65.349,210.478 64.989,210.478 64.652 C 210.478 63.691,211.522 64.071,211.637 65.075 C 211.690 65.533,211.861 65.907,212.017 65.907 C 212.173 65.907,212.301 66.162,212.301 66.474 C 212.301 66.785,212.574 67.388,212.908 67.813 C 213.242 68.237,213.516 68.704,213.516 68.850 C 213.516 69.936,219.004 73.804,220.544 73.804 C 220.854 73.804,221.109 73.924,221.109 74.071 C 221.109 74.317,223.878 74.735,225.664 74.759 C 227.094 74.778,231.826 73.923,233.409 73.361 C 234.824 72.858,238.421 70.966,238.421 70.725 C 238.421 70.581,238.597 70.463,238.813 70.463 C 239.162 70.463,240.479 69.159,241.762 67.544 C 242.603 66.484,244.116 63.336,244.300 62.263 C 245.174 57.152,244.525 52.068,242.515 48.278 C 241.977 47.264,242.325 46.762,243.775 46.459 C 244.421 46.323,246.112 45.932,247.532 45.589 C 248.952 45.246,250.717 44.820,251.454 44.642 C 253.126 44.239,253.506 44.538,253.037 45.884 C 252.595 47.153,252.560 63.966,252.999 64.237 C 253.166 64.340,253.305 64.861,253.308 65.394 C 253.319 67.883,255.044 70.830,256.974 71.660 C 259.048 72.552,262.759 72.346,263.826 71.279 C 263.941 71.164,264.215 71.071,264.436 71.071 C 265.916 71.071,270.027 66.305,271.641 62.718 C 272.092 61.716,272.592 60.659,272.753 60.369 C 272.913 60.079,273.045 59.566,273.045 59.230 C 273.045 58.893,273.181 58.618,273.349 58.618 C 273.516 58.618,273.652 58.320,273.652 57.956 C 273.652 57.345,274.012 56.001,274.574 54.518 C 274.700 54.184,274.963 53.090,275.158 52.088 C 276.098 47.264,276.242 47.143,278.056 49.671 C 278.390 50.137,278.800 50.670,278.967 50.855 C 280.438 52.487,282.764 55.957,282.764 56.520 C 282.764 56.709,281.875 57.727,280.790 58.781 C 279.704 59.835,278.815 60.845,278.815 61.025 C 278.815 61.204,278.688 61.352,278.533 61.352 C 277.649 61.352,276.082 65.868,276.082 68.419 C 276.082 71.595,277.458 74.412,279.009 74.412 C 279.237 74.412,279.423 74.548,279.423 74.715 C 279.423 74.882,279.757 75.019,280.164 75.019 C 280.572 75.019,280.998 75.168,281.111 75.351 C 281.232 75.547,281.768 75.614,282.420 75.515 C 285.080 75.108,285.817 74.935,285.974 74.682 C 286.065 74.533,286.406 74.412,286.730 74.412 C 287.054 74.412,287.320 74.275,287.320 74.108 C 287.320 73.941,287.527 73.804,287.779 73.804 C 288.879 73.804,293.074 70.503,293.085 69.628 C 293.088 69.419,293.208 69.248,293.353 69.248 C 294.692 69.248,294.988 61.068,293.730 58.828 C 292.735 57.056,293.338 56.188,295.563 56.188 C 296.021 56.188,296.480 56.052,296.583 55.885 C 296.686 55.718,297.107 55.581,297.518 55.581 C 298.395 55.581,300.847 54.379,302.886 52.948 C 304.478 51.832,304.935 51.708,304.935 52.392 C 304.935 52.642,305.056 52.847,305.202 52.847 C 305.349 52.847,305.649 53.292,305.868 53.834 C 306.088 54.377,306.350 54.890,306.450 54.973 C 306.806 55.269,308.884 59.733,308.884 60.202 C 308.884 60.503,308.383 60.825,307.517 61.081 C 306.765 61.303,306.150 61.591,306.150 61.722 C 306.150 61.852,305.877 61.959,305.543 61.959 C 305.209 61.959,304.935 62.096,304.935 62.263 C 304.935 62.430,304.662 62.566,304.328 62.566 C 303.994 62.566,303.721 62.703,303.721 62.870 C 303.721 63.037,303.585 63.174,303.420 63.174 C 302.670 63.174,299.701 65.987,298.933 67.425 C 298.206 68.788,297.946 72.667,298.557 73.045 C 298.724 73.148,298.861 73.474,298.861 73.770 C 298.861 76.133,304.854 79.872,308.005 79.475 C 308.739 79.382,310.128 79.213,311.091 79.099 C 312.055 78.985,312.917 78.772,313.008 78.626 C 313.098 78.479,313.442 78.360,313.771 78.360 C 315.621 78.360,319.358 75.267,319.725 73.432 C 319.819 72.961,320.015 72.503,320.161 72.413 C 320.530 72.185,320.494 66.897,320.121 66.667 C 319.954 66.563,319.818 66.085,319.818 65.604 C 319.818 65.122,319.681 64.644,319.514 64.541 C 319.347 64.437,319.210 64.086,319.210 63.759 C 319.210 63.433,319.091 62.928,318.945 62.638 C 317.805 60.376,317.388 59.412,317.388 59.040 C 317.388 58.537,319.120 57.406,319.894 57.404 C 320.186 57.404,320.425 57.267,320.425 57.099 C 320.425 56.932,320.664 56.793,320.957 56.789 C 321.249 56.785,321.830 56.515,322.248 56.188 C 322.665 55.862,323.116 55.591,323.248 55.588 C 323.381 55.584,323.818 55.253,324.218 54.853 C 324.619 54.452,325.062 54.076,325.204 54.017 C 325.346 53.959,325.848 53.398,326.320 52.771 C 327.459 51.261,327.570 51.311,327.995 53.531 C 328.831 57.898,330.094 60.744,331.196 60.744 C 331.318 60.744,331.780 60.994,332.223 61.299 C 335.274 63.399,343.885 63.640,345.634 61.673 C 345.718 61.579,346.196 61.298,346.697 61.047 C 348.982 59.906,352.141 56.658,353.688 53.857 C 354.133 53.051,354.622 52.262,354.774 52.103 C 354.925 51.945,355.049 51.569,355.049 51.268 C 355.049 50.967,355.186 50.721,355.353 50.721 C 355.520 50.721,355.657 50.516,355.657 50.266 C 355.657 49.081,356.226 49.996,356.366 51.405 C 356.963 57.422,358.235 59.455,361.436 59.507 C 363.839 59.546,364.193 59.054,364.115 55.784 C 364.075 54.095,364.190 52.730,364.408 52.316 C 365.233 50.750,365.376 50.404,365.376 49.966 C 365.376 49.713,365.513 49.506,365.680 49.506 C 365.847 49.506,365.983 49.311,365.983 49.072 C 365.983 48.834,366.598 47.313,367.350 45.693 C 368.102 44.074,368.717 42.561,368.717 42.331 C 368.717 42.101,368.828 41.913,368.964 41.913 C 369.100 41.913,369.399 41.435,369.628 40.850 C 369.857 40.266,370.156 39.787,370.292 39.787 C 370.428 39.787,370.539 39.635,370.539 39.448 C 370.539 38.460,374.879 33.409,375.728 33.409 C 376.629 33.409,376.829 38.647,375.999 40.547 C 375.853 40.881,375.663 41.769,375.576 42.521 C 375.206 45.719,375.044 46.655,374.757 47.241 C 374.372 48.025,374.607 60.193,375.055 62.718 C 375.233 63.721,375.466 65.054,375.574 65.682 C 375.681 66.310,375.891 66.899,376.040 66.991 C 376.188 67.083,376.310 67.488,376.310 67.890 C 376.310 68.293,376.583 69.109,376.917 69.704 C 377.251 70.299,377.525 70.965,377.525 71.185 C 377.525 71.405,377.802 71.914,378.142 72.315 C 378.481 72.716,379.130 73.486,379.584 74.025 C 380.038 74.565,380.581 75.009,380.790 75.012 C 380.998 75.016,381.169 75.156,381.169 75.323 C 381.169 75.490,381.853 75.626,382.688 75.626 C 383.523 75.626,384.207 75.490,384.207 75.323 C 384.207 75.156,384.410 75.019,384.659 75.019 C 385.534 75.019,388.170 72.458,389.088 70.715 C 389.293 70.326,389.543 69.939,389.643 69.856 C 389.743 69.772,390.218 68.884,390.698 67.882 C 391.178 66.879,391.827 65.534,392.141 64.892 C 392.454 64.249,392.711 63.463,392.711 63.145 C 392.711 62.827,392.847 62.566,393.014 62.566 C 393.181 62.566,393.318 62.233,393.318 61.825 C 393.318 61.417,393.439 61.009,393.587 60.918 C 393.735 60.826,393.928 60.374,394.016 59.913 C 394.104 59.451,394.548 57.775,395.002 56.188 C 395.457 54.601,395.894 52.790,395.973 52.162 C 396.051 51.535,396.238 50.946,396.387 50.853 C 396.537 50.761,396.659 50.243,396.659 49.701 C 396.659 49.160,396.782 48.587,396.932 48.428 C 397.082 48.270,397.283 47.593,397.380 46.925 C 397.477 46.257,397.639 45.156,397.741 44.478 C 397.879 43.559,397.805 43.146,397.449 42.850 C 396.797 42.309,396.052 42.654,396.048 43.498 C 396.046 43.880,395.757 45.285,395.406 46.621 C 395.054 47.957,394.700 49.563,394.618 50.190 C 394.536 50.816,394.347 51.329,394.197 51.329 C 394.048 51.329,393.926 51.799,393.926 52.374 C 393.926 52.949,393.789 53.503,393.622 53.607 C 393.455 53.710,393.318 54.120,393.318 54.518 C 393.318 54.916,393.197 55.316,393.048 55.408 C 392.899 55.500,392.710 56.021,392.628 56.565 C 392.495 57.438,391.569 60.389,390.887 62.111 C 387.063 71.764,383.719 73.773,382.083 67.401 C 381.665 65.769,381.855 56.346,382.374 52.999 C 383.218 47.561,383.343 46.333,383.489 42.092 C 383.659 37.125,383.382 36.017,381.495 34.115 C 378.286 30.884,374.451 30.650,372.239 33.550 C 371.810 34.112,371.282 34.754,371.065 34.978 C 369.493 36.597,366.786 41.351,364.747 46.077 C 363.930 47.971,363.391 47.878,363.702 45.898 C 363.823 45.126,364.042 43.470,364.189 42.217 C 364.335 40.964,364.540 39.290,364.643 38.497 C 364.767 37.536,364.718 37.054,364.495 37.054 C 364.311 37.054,364.161 36.868,364.161 36.640 C 364.161 36.074,362.778 34.735,361.703 34.259 C 361.217 34.044,360.820 33.765,360.820 33.639 C 360.820 32.819,358.394 33.464,357.973 34.396 C 357.539 35.356,357.446 35.802,356.885 39.636 C 356.364 43.190,355.338 46.556,354.081 48.832 C 353.778 49.380,353.531 50.030,353.531 50.275 C 353.531 50.520,353.427 50.721,353.301 50.721 C 353.175 50.721,352.875 51.166,352.635 51.708 C 352.394 52.251,352.087 52.832,351.952 52.999 C 351.816 53.166,351.088 54.123,350.334 55.125 C 347.990 58.239,345.049 60.150,342.635 60.130 C 340.873 60.115,337.434 57.778,337.434 56.595 C 337.434 56.367,337.306 55.943,337.150 55.653 C 336.667 54.754,336.219 52.350,336.219 50.656 L 336.219 49.037 337.921 48.641 C 339.550 48.263,341.226 47.492,342.159 46.692 C 343.857 45.236,344.514 44.447,345.179 43.068 C 345.597 42.203,345.938 41.230,345.938 40.905 C 345.938 40.580,346.100 39.773,346.298 39.112 C 346.575 38.186,346.575 37.779,346.298 37.335 C 346.100 37.018,345.938 36.517,345.937 36.223 C 345.936 34.373,341.428 32.411,338.390 32.938 C 336.596 33.249,334.093 34.079,334.093 34.362 C 334.093 34.506,333.904 34.624,333.673 34.624 C 332.738 34.624,329.537 38.667,329.537 39.847 C 329.537 40.148,329.400 40.395,329.233 40.395 C 329.066 40.395,328.929 40.709,328.929 41.093 C 328.929 41.478,328.806 41.922,328.656 42.080 C 328.505 42.239,328.150 43.428,327.866 44.723 C 327.582 46.017,327.227 47.077,327.077 47.077 C 326.926 47.077,326.803 47.284,326.803 47.536 C 326.803 48.395,325.834 49.725,323.123 52.583 C 322.352 53.397,321.611 54.062,321.477 54.062 C 321.342 54.062,321.017 54.252,320.753 54.484 C 318.911 56.103,315.869 56.868,315.869 55.712 C 315.869 55.473,315.733 55.277,315.566 55.277 C 315.399 55.277,315.262 55.144,315.262 54.981 C 315.262 54.818,314.374 53.311,313.288 51.632 C 312.202 49.954,311.314 48.447,311.314 48.284 C 311.314 48.121,311.177 47.988,311.010 47.988 C 310.843 47.988,310.706 47.783,310.706 47.532 C 310.706 47.282,310.569 47.077,310.402 47.077 C 310.235 47.077,310.099 46.872,310.099 46.621 C 310.099 46.371,309.962 46.166,309.795 46.166 C 309.628 46.166,309.491 45.892,309.491 45.558 C 309.491 45.224,309.628 44.951,309.795 44.951 C 309.962 44.951,310.099 44.746,310.099 44.495 C 310.099 44.244,310.202 44.039,310.328 44.039 C 310.555 44.039,310.684 43.782,311.906 40.901 C 314.609 34.527,309.970 28.331,304.450 30.941 C 300.451 32.831,299.698 33.735,299.231 37.206 C 298.999 38.936,299.066 39.505,299.840 42.369 C 300.208 43.728,301.620 47.146,301.911 47.380 C 302.014 47.464,302.292 47.976,302.528 48.519 C 302.764 49.062,303.069 49.506,303.205 49.506 C 303.713 49.506,303.022 50.153,301.417 51.180 C 300.506 51.763,299.558 52.240,299.311 52.240 C 299.063 52.240,298.861 52.347,298.861 52.477 C 298.861 52.608,298.212 52.893,297.418 53.110 C 296.625 53.328,295.702 53.622,295.368 53.764 C 294.479 54.142,291.268 54.452,291.268 54.160 C 291.267 54.023,290.918 53.500,290.490 52.999 C 290.063 52.498,289.209 51.496,288.592 50.772 C 287.976 50.047,287.017 48.954,286.462 48.342 C 285.907 47.729,285.228 46.853,284.954 46.393 C 284.680 45.934,284.348 45.558,284.217 45.558 C 284.086 45.558,283.979 45.379,283.979 45.160 C 283.979 44.941,283.735 44.497,283.437 44.173 C 281.991 42.600,281.734 41.363,282.587 40.075 C 283.018 39.423,283.371 38.681,283.371 38.427 C 283.371 38.173,283.482 37.965,283.618 37.965 C 284.048 37.965,284.712 34.845,284.685 32.952 C 284.639 29.728,283.180 27.909,279.831 26.902 C 278.654 26.548,275.523 27.475,273.962 28.640 C 272.951 29.395,271.538 31.848,271.531 32.860 C 271.529 33.309,271.390 33.762,271.222 33.865 C 271.055 33.968,270.919 34.788,270.919 35.687 C 270.919 36.586,271.055 37.406,271.222 37.509 C 271.390 37.613,271.530 38.065,271.535 38.515 C 271.546 39.551,273.016 43.202,273.783 44.097 C 274.414 44.834,274.533 47.705,273.994 49.203 C 273.843 49.620,273.482 51.055,273.192 52.392 C 272.673 54.776,272.556 55.174,271.868 56.886 C 271.680 57.353,271.526 58.002,271.526 58.329 C 271.526 58.655,271.390 58.922,271.222 58.922 C 271.055 58.922,270.919 59.128,270.919 59.381 C 270.919 60.346,267.710 66.146,266.558 67.264 C 264.286 69.469,259.985 69.303,259.985 67.011 C 259.985 66.738,259.835 66.515,259.651 66.515 C 259.064 66.515,259.706 53.382,260.602 47.077 C 261.100 43.573,261.277 40.699,260.995 40.699 C 260.855 40.699,260.554 40.278,260.326 39.763 C 258.726 36.147,254.306 36.483,253.740 40.264 C 253.475 42.027,253.247 42.271,251.588 42.567 C 250.777 42.712,249.362 42.961,248.443 43.121 C 247.525 43.281,246.021 43.558,245.103 43.738 C 244.184 43.917,242.749 44.165,241.913 44.288 C 241.078 44.412,240.232 44.615,240.033 44.739 C 239.713 44.939,239.020 44.455,236.853 42.521 C 236.572 42.270,235.649 41.796,234.800 41.467 C 233.187 40.841,232.835 40.266,233.865 39.939 C 234.199 39.833,234.472 39.619,234.472 39.463 C 234.472 39.307,234.627 39.180,234.815 39.180 C 235.463 39.180,239.537 35.412,239.806 34.564 C 239.902 34.263,240.099 34.017,240.244 34.017 C 240.389 34.017,240.680 33.538,240.892 32.954 C 241.103 32.369,241.385 31.891,241.519 31.891 C 241.652 31.891,241.762 31.625,241.762 31.301 C 241.762 30.977,241.898 30.627,242.065 30.524 C 242.232 30.421,242.369 29.962,242.369 29.504 C 242.369 29.046,242.509 28.531,242.681 28.360 C 243.182 27.858,243.205 21.213,242.708 20.169 C 242.477 19.684,242.135 18.945,241.949 18.527 C 241.763 18.109,241.542 17.699,241.458 17.616 C 241.374 17.532,241.121 17.107,240.897 16.670 C 240.136 15.192,236.964 12.453,236.012 12.453 C 235.833 12.453,235.687 12.346,235.687 12.215 C 235.687 11.958,234.138 11.502,231.333 10.934 C 229.064 10.474,224.143 11.064,221.260 12.141 C 220.926 12.266,220.106 12.533,219.438 12.734 C 216.952 13.483,210.728 16.303,210.529 16.770 C 210.473 16.901,210.177 17.008,209.871 17.008 C 209.565 17.008,209.269 17.111,209.213 17.236 C 209.157 17.361,208.702 17.693,208.200 17.974 C 207.116 18.581,206.838 19.606,207.684 19.874 C 208.346 20.084,209.263 19.812,209.263 19.406 C 209.263 19.256,209.443 19.134,209.662 19.134 C 209.881 19.134,210.326 18.895,210.650 18.603 C 210.974 18.311,212.333 17.543,213.668 16.898 C 215.004 16.253,216.335 15.604,216.625 15.456 C 216.915 15.307,217.359 15.186,217.612 15.186 C 217.865 15.186,218.071 15.049,218.071 14.882 C 218.071 14.715,218.370 14.579,218.735 14.579 C 219.099 14.579,220.227 14.271,221.240 13.895 C 225.750 12.222,232.436 12.975,235.188 15.464 C 240.027 19.844,236.859 29.947,229.644 33.140 C 229.126 33.370,228.702 33.661,228.702 33.787 C 228.702 33.913,228.428 34.017,228.094 34.017 C 227.760 34.017,227.487 34.153,227.487 34.320 C 227.487 34.487,227.145 34.624,226.727 34.624 C 226.310 34.624,225.968 34.761,225.968 34.928 C 225.968 35.095,225.761 35.232,225.508 35.232 C 225.256 35.232,224.777 35.368,224.445 35.535 C 224.114 35.702,223.553 35.987,223.199 36.168 C 221.862 36.851,221.874 35.907,223.243 32.650 C 223.383 32.316,223.661 31.496,223.859 30.828 C 224.058 30.159,224.340 29.375,224.487 29.085 C 225.386 27.304,224.869 25.963,222.231 23.235 C 219.410 20.316,218.900 20.190,218.358 22.279 C 218.178 22.972,217.767 24.376,217.444 25.401 C 217.121 26.425,216.856 27.544,216.856 27.888 C 216.856 28.232,216.735 28.589,216.586 28.681 C 216.438 28.773,216.239 29.293,216.145 29.838 C 216.051 30.382,215.890 31.306,215.787 31.891 C 215.684 32.475,215.483 33.227,215.339 33.561 C 215.061 34.209,214.805 35.903,214.468 39.332 C 214.353 40.501,214.114 41.731,213.936 42.065 C 213.758 42.399,213.440 43.698,213.229 44.951 C 213.018 46.203,212.723 47.625,212.573 48.109 C 212.423 48.593,212.301 49.371,212.301 49.838 C 212.301 50.304,212.178 50.761,212.029 50.853 C 211.880 50.946,211.680 51.535,211.585 52.162 C 211.183 54.827,211.004 55.596,210.749 55.753 C 210.600 55.845,210.478 56.196,210.478 56.532 C 210.478 56.869,210.137 58.162,209.719 59.406 C 209.301 60.650,208.960 61.803,208.960 61.969 C 208.960 62.554,206.495 67.830,206.150 67.983 C 206.025 68.038,205.923 68.270,205.923 68.496 C 205.923 68.723,205.301 69.539,204.542 70.310 C 199.795 75.125,197.516 68.609,199.550 56.036 C 201.068 46.651,201.033 45.163,199.255 43.660 C 198.243 42.804,194.393 43.164,194.384 44.115 C 194.382 44.241,194.131 44.343,193.824 44.343 C 193.518 44.343,193.166 44.446,193.042 44.571 C 192.919 44.696,192.042 44.937,191.093 45.107 C 186.494 45.929,182.438 43.457,184.358 41.002 C 184.685 40.585,184.956 40.106,184.960 39.939 C 184.965 39.772,185.309 38.963,185.726 38.141 C 186.143 37.320,186.484 36.405,186.484 36.109 C 186.484 35.813,186.621 35.487,186.788 35.383 C 186.955 35.280,187.092 34.589,187.092 33.847 C 187.092 33.105,186.955 32.498,186.788 32.498 C 186.621 32.498,186.484 32.312,186.484 32.084 C 186.484 29.980,182.272 29.306,180.318 31.096 C 179.700 31.662,179.195 32.277,179.195 32.463 C 179.195 32.649,179.092 32.802,178.966 32.802 C 178.420 32.802,177.871 34.911,177.861 37.043 C 177.851 39.265,178.476 42.217,178.958 42.217 C 179.088 42.217,179.195 42.418,179.195 42.664 C 179.195 42.909,179.463 43.587,179.791 44.171 C 180.140 44.792,180.266 45.308,180.095 45.413 C 179.934 45.513,179.803 45.928,179.803 46.335 C 179.803 46.743,179.666 47.077,179.499 47.077 C 179.332 47.077,179.195 47.269,179.195 47.503 C 179.195 48.954,175.101 55.406,172.869 57.470 C 167.126 62.784,160.972 59.497,160.972 51.114 C 160.972 48.717,160.652 49.033,163.705 48.409 C 164.207 48.306,164.617 48.135,164.617 48.028 C 164.617 47.920,165.061 47.643,165.604 47.412 C 166.777 46.913,169.152 44.535,169.745 43.268 C 169.976 42.774,170.292 42.088,170.448 41.744 C 170.926 40.689,170.891 36.703,170.395 35.624 C 169.139 32.893,163.412 32.121,159.150 34.108 C 157.367 34.939,154.848 37.520,154.454 38.920 C 154.343 39.313,154.124 39.943,153.967 40.319 C 153.220 42.113,153.107 42.430,152.910 43.280 C 152.794 43.781,152.593 45.968,152.464 48.140 C 152.104 54.169,151.799 57.102,151.513 57.279 C 151.370 57.367,151.253 57.859,151.253 58.373 C 151.253 59.327,150.961 60.630,150.146 63.326 C 148.112 70.046,143.249 73.980,139.910 71.604 C 138.122 70.331,133.637 65.447,133.637 64.773 C 133.637 64.635,133.364 64.326,133.030 64.085 C 132.696 63.844,132.422 63.472,132.422 63.259 C 132.422 63.045,132.285 62.870,132.118 62.870 C 131.951 62.870,131.815 62.728,131.815 62.554 C 131.815 62.380,131.541 61.944,131.207 61.585 C 130.218 60.524,130.460 59.988,132.513 58.701 C 138.211 55.129,141.002 51.069,140.984 46.380 C 140.978 45.045,140.861 43.870,140.722 43.768 C 140.583 43.667,140.294 43.242,140.079 42.824 C 137.938 38.654,129.962 42.122,126.525 48.718 C 125.189 51.281,124.737 50.648,125.418 47.168 C 125.574 46.366,125.783 45.095,125.882 44.343 C 126.033 43.189,126.357 42.670,127.963 41.002 C 129.009 39.916,130.338 38.414,130.916 37.662 C 132.136 36.077,132.754 35.302,133.187 34.818 C 133.929 33.987,135.763 31.255,135.763 30.979 C 135.763 30.812,135.900 30.676,136.067 30.676 C 136.234 30.676,136.371 30.530,136.371 30.351 C 136.371 30.172,136.757 29.455,137.229 28.756 C 137.701 28.058,138.597 26.393,139.220 25.057 C 139.844 23.721,140.483 22.390,140.640 22.100 C 140.798 21.810,140.926 21.305,140.926 20.979 C 140.926 20.652,141.063 20.301,141.230 20.197 C 141.397 20.094,141.534 19.684,141.534 19.286 C 141.534 18.888,141.670 18.478,141.838 18.375 C 142.005 18.272,142.141 17.845,142.141 17.426 C 142.141 17.007,142.286 16.395,142.463 16.064 C 142.888 15.269,142.883 6.878,142.457 6.736 C 142.283 6.679,142.141 6.459,142.141 6.248 C 142.141 3.231,136.353 0.756,131.967 1.897 M138.809 4.788 C 139.291 5.365,139.738 6.261,140.324 7.818 C 140.869 9.269,140.768 14.672,140.155 16.856 C 139.873 17.859,139.575 19.055,139.491 19.514 C 139.407 19.973,139.218 20.349,139.070 20.349 C 138.921 20.349,138.800 20.563,138.800 20.824 C 138.800 21.726,135.087 28.841,134.477 29.107 C 134.349 29.162,134.244 29.339,134.244 29.499 C 134.244 29.659,134.107 29.955,133.938 30.157 C 133.770 30.359,132.611 31.891,131.362 33.561 C 128.726 37.087,126.744 39.374,126.520 39.150 C 126.278 38.908,127.060 31.474,127.858 26.424 C 128.030 25.338,128.255 23.729,128.360 22.849 C 128.464 21.969,128.669 21.175,128.816 21.085 C 128.962 20.995,129.081 20.526,129.081 20.042 C 129.081 19.559,129.299 18.371,129.565 17.403 C 129.831 16.434,130.183 15.027,130.347 14.275 C 130.511 13.523,130.840 12.464,131.078 11.921 C 132.085 9.626,132.552 8.647,132.711 8.504 C 132.803 8.421,133.075 7.972,133.314 7.508 C 134.705 4.810,137.622 3.366,138.809 4.788 M50.157 7.265 C 51.403 8.425,52.342 12.453,51.367 12.453 C 51.221 12.453,51.025 12.828,50.933 13.288 C 50.752 14.189,48.132 17.008,47.476 17.008 C 47.257 17.008,47.077 17.145,47.077 17.312 C 47.077 17.479,46.826 17.616,46.520 17.616 C 46.214 17.616,45.869 17.709,45.755 17.824 C 45.404 18.175,43.336 18.807,43.072 18.644 C 42.795 18.473,43.083 16.117,43.438 15.642 C 43.563 15.475,43.766 14.860,43.888 14.275 C 44.011 13.690,44.368 12.674,44.683 12.016 C 44.997 11.358,45.254 10.641,45.254 10.421 C 45.254 10.202,45.391 10.023,45.558 10.023 C 45.725 10.023,45.862 9.879,45.862 9.703 C 45.862 9.204,47.488 7.289,47.912 7.289 C 48.121 7.289,48.292 7.153,48.292 6.986 C 48.292 6.470,49.498 6.650,50.157 7.265 M257.099 25.312 C 256.070 26.611,255.692 28.301,256.340 28.702 C 256.507 28.805,256.647 29.120,256.651 29.403 C 256.666 30.585,257.665 31.293,259.779 31.622 C 262.319 32.018,262.576 31.843,262.811 29.560 C 263.032 27.418,262.819 27.018,260.992 26.145 C 260.188 25.761,259.292 25.324,259.002 25.176 C 258.268 24.799,257.459 24.857,257.099 25.312 M280.950 30.578 C 282.627 32.422,282.248 36.094,280.166 38.176 C 279.697 38.645,278.815 38.125,278.815 37.379 C 278.815 37.200,278.711 37.054,278.583 37.054 C 277.930 37.054,276.556 32.484,276.816 31.180 C 277.244 29.041,279.281 28.745,280.950 30.578 M183.925 32.325 C 184.707 33.107,184.446 35.200,183.270 37.580 C 181.984 40.183,181.838 40.310,181.217 39.363 C 179.256 36.369,181.676 30.076,183.925 32.325 M308.430 33.535 C 308.833 33.938,309.252 34.623,309.361 35.056 C 309.470 35.490,309.680 35.920,309.829 36.012 C 310.535 36.448,309.537 40.425,308.368 41.833 L 307.671 42.673 307.046 41.913 C 306.703 41.496,306.224 40.913,305.982 40.619 C 305.741 40.325,305.543 39.881,305.543 39.632 C 305.543 39.383,305.406 39.180,305.239 39.180 C 305.072 39.180,304.935 38.846,304.935 38.439 C 304.935 38.031,304.799 37.613,304.632 37.509 C 304.465 37.406,304.328 36.628,304.328 35.781 C 304.328 33.174,306.745 31.850,308.430 33.535 M73.412 35.690 C 76.975 38.186,73.896 45.531,68.970 46.287 C 67.057 46.580,67.092 46.750,67.925 41.230 C 68.020 40.604,68.220 40.091,68.369 40.091 C 68.519 40.091,68.641 39.749,68.641 39.332 C 68.641 38.914,68.778 38.573,68.945 38.573 C 69.112 38.573,69.248 38.299,69.248 37.965 C 69.248 37.631,69.385 37.358,69.552 37.358 C 69.719 37.358,69.856 37.164,69.856 36.927 C 69.856 35.716,72.257 34.881,73.412 35.690 M166.890 35.712 C 168.164 36.547,168.711 41.108,167.618 41.784 C 167.471 41.875,167.350 42.159,167.350 42.416 C 167.350 43.156,166.170 44.617,164.953 45.386 C 162.759 46.770,159.785 46.660,160.692 45.227 C 160.841 44.991,160.965 44.293,160.967 43.674 C 160.970 43.056,161.091 42.236,161.237 41.852 C 161.383 41.468,161.746 40.402,162.044 39.484 C 163.230 35.823,164.980 34.461,166.890 35.712 M342.411 35.915 C 345.509 38.946,342.554 45.512,337.744 46.281 C 335.852 46.584,335.885 46.748,336.718 41.230 C 336.813 40.604,337.012 40.091,337.162 40.091 C 337.311 40.091,337.434 39.749,337.434 39.332 C 337.434 38.914,337.570 38.573,337.737 38.573 C 337.904 38.573,338.041 38.362,338.041 38.104 C 338.041 36.155,341.093 34.626,342.411 35.915 M230.068 42.217 C 230.172 42.384,230.582 42.521,230.979 42.521 C 231.377 42.521,231.787 42.658,231.891 42.825 C 231.994 42.992,232.324 43.128,232.625 43.128 C 232.926 43.128,234.007 43.559,235.027 44.085 C 236.802 45.000,237.179 45.558,236.024 45.558 C 235.727 45.558,235.384 45.658,235.262 45.781 C 235.139 45.904,234.330 46.165,233.465 46.361 C 232.599 46.557,231.344 46.879,230.676 47.077 C 230.008 47.275,229.015 47.508,228.471 47.594 C 227.927 47.681,227.406 47.873,227.314 48.021 C 227.222 48.170,226.822 48.292,226.424 48.292 C 226.026 48.292,225.616 48.428,225.513 48.595 C 225.409 48.762,224.931 48.899,224.450 48.899 C 223.968 48.899,223.499 49.021,223.407 49.169 C 223.315 49.318,222.795 49.502,222.250 49.578 C 221.706 49.655,221.003 49.828,220.688 49.964 C 220.027 50.248,220.083 44.423,220.757 42.749 L 221.094 41.913 225.487 41.913 C 228.088 41.913,229.957 42.037,230.068 42.217 M137.163 43.660 C 137.660 44.315,137.707 46.586,137.241 47.457 C 136.422 48.987,132.991 52.239,132.194 52.240 C 131.986 52.240,131.815 52.377,131.815 52.544 C 131.815 52.711,131.621 52.847,131.384 52.847 C 131.148 52.847,130.909 52.950,130.853 53.075 C 130.761 53.282,128.896 54.238,126.955 55.074 C 126.538 55.253,126.074 55.461,125.926 55.535 C 125.395 55.798,126.092 53.401,126.986 51.883 C 129.350 47.875,132.828 43.736,133.832 43.736 C 134.059 43.736,134.244 43.599,134.244 43.432 C 134.244 42.887,136.723 43.080,137.163 43.660 M19.955 45.828 C 20.657 46.181,21.374 46.469,21.549 46.469 C 21.725 46.469,21.868 46.583,21.868 46.722 C 21.868 46.860,22.244 47.168,22.703 47.405 C 24.138 48.145,25.031 49.810,23.994 49.810 C 23.827 49.810,23.690 49.999,23.690 50.229 C 23.690 50.617,22.507 53.520,21.849 54.746 C 21.174 56.005,20.795 56.654,20.653 56.796 C 20.569 56.879,20.296 57.358,20.046 57.859 C 19.796 58.360,19.522 58.838,19.437 58.922 C 19.352 59.005,18.882 59.610,18.393 60.266 C 14.797 65.086,11.098 66.087,8.052 63.065 C 7.150 62.170,6.321 61.076,6.210 60.635 C 6.099 60.194,5.887 59.833,5.738 59.833 C 5.589 59.833,5.467 59.568,5.467 59.243 C 5.467 58.919,5.330 58.569,5.163 58.466 C 4.582 58.107,5.009 54.229,5.791 52.776 C 5.947 52.486,6.074 52.044,6.074 51.794 C 6.074 50.558,9.848 45.862,10.841 45.862 C 11.059 45.862,11.238 45.735,11.238 45.579 C 11.238 44.702,18.103 44.898,19.955 45.828 M238.606 47.613 C 239.332 48.092,239.975 54.756,239.355 55.375 C 239.175 55.555,239.028 56.145,239.028 56.687 C 239.028 57.228,238.891 57.756,238.724 57.859 C 238.557 57.962,238.421 58.382,238.421 58.792 C 238.421 59.202,238.301 59.775,238.154 60.065 C 238.007 60.355,237.495 61.481,237.015 62.566 C 235.313 66.419,231.951 69.120,226.858 70.728 C 225.501 71.156,220.197 71.187,220.197 70.767 C 220.197 70.600,219.983 70.463,219.721 70.463 C 216.178 70.463,211.989 62.644,213.585 59.012 C 214.560 56.795,218.727 53.478,222.475 51.936 C 222.976 51.730,223.624 51.441,223.914 51.293 C 224.204 51.146,224.684 51.025,224.981 51.025 C 225.278 51.025,226.253 50.758,227.146 50.431 C 228.040 50.104,229.373 49.747,230.107 49.637 C 230.842 49.526,231.517 49.315,231.609 49.168 C 231.700 49.020,232.169 48.899,232.650 48.899 C 233.131 48.899,233.610 48.762,233.713 48.595 C 233.816 48.428,234.275 48.292,234.733 48.292 C 235.191 48.292,235.696 48.166,235.854 48.014 C 236.104 47.773,236.878 47.558,237.965 47.426 C 238.132 47.406,238.421 47.490,238.606 47.613 M284.923 60.820 C 287.245 63.233,288.177 67.377,286.854 69.400 C 285.982 70.733,284.984 71.678,284.448 71.678 C 284.190 71.678,283.979 71.815,283.979 71.982 C 283.979 73.064,280.375 71.940,279.484 70.580 C 278.775 69.499,278.495 65.907,279.119 65.907 C 279.286 65.907,279.423 65.686,279.423 65.414 C 279.423 64.872,281.922 61.209,282.869 60.364 C 283.674 59.646,283.826 59.680,284.923 60.820 M310.513 64.541 C 310.664 65.042,310.896 65.725,311.030 66.059 C 312.073 68.672,312.012 75.019,310.944 75.019 C 310.813 75.019,310.706 75.218,310.706 75.462 C 310.706 76.031,308.295 77.450,307.339 77.444 C 305.206 77.431,302.574 76.034,301.550 74.373 C 301.157 73.735,300.733 73.209,300.607 73.205 C 300.228 73.191,300.353 69.895,300.759 69.184 C 301.265 68.301,303.407 66.155,304.257 65.680 C 308.559 63.274,310.051 63.002,310.513 64.541 " stroke="none" fill="#000000" fill-rule="evenodd"></path></g></svg>