<svg xmlns="http://www.w3.org/2000/svg" xmlns:xlink="http://www.w3.org/1999/xlink" height="800" width="1200" viewBox="-49.70715 -40.87825 430.7953 245.2695"><g transform="translate(-4.643 -4.122)"><defs><path id="a" d="M4.643 4.125h331.383v166.607H4.643z"/></defs><clipPath id="b"><use height="100%" width="100%" overflow="visible" xlink:href="#a"/></clipPath><path d="M319.571 135.514c0-3.113 2.521-5.409 5.507-5.409 2.956 0 5.479 2.296 5.479 5.409 0 3.142-2.523 5.438-5.479 5.438-2.987-.001-5.507-2.297-5.507-5.438m5.507 4.532c2.454 0 4.388-1.921 4.388-4.532 0-2.567-1.934-4.501-4.388-4.501-2.482 0-4.419 1.934-4.419 4.501 0 2.611 1.936 4.532 4.419 4.532m-1.145-1.391h-.946V132.4h2.378c1.477 0 2.208.546 2.208 1.782 0 1.117-.703 1.605-1.621 1.719l1.779 2.754h-1.061l-1.646-2.709h-1.091zm1.132-3.513c.805 0 1.521-.06 1.521-1.019 0-.772-.703-.915-1.362-.915h-1.29v1.934zm-170.024 17.337c-2.071 0-4.113-.119-6.121-.337-.77 4.236-1.405 7.756-1.503 8.311-.229 1.338-.662 1.896-1.77 1.735.052.006.097.019.154.025l-.306-.045c.056.013.1.013.151.02-1.108-.146-1.369-.801-1.229-2.145.062-.568.516-4.11 1.064-8.378a56.06 56.06 0 01-16.313-5.453c-4.577 7.889-9.396 16.228-9.8 16.891-.71 1.157-1.32 1.514-2.29.952.049.025.085.057.136.082l-.269-.151c.049.028.092.044.133.069-.972-.543-.975-1.252-.346-2.451.346-.659 4.555-8.528 8.688-16.284H4.642v22.315h165.275a24795.76 24795.76 0 00-3.876-16.234 56.887 56.887 0 01-11 1.078m38.626-1.58c.726 1.148.779 1.852-.155 2.477.048-.032.089-.054.133-.089l-.255.177c.05-.031.082-.06.122-.088-.917.631-1.555.324-2.35-.767-.328-.445-2.491-3.529-5.128-7.289h-3.464a56.275 56.275 0 01-12.709 5.191c1.149 5.365 2.45 11.431 3.679 17.121h157.01V145.32H190.119a2554.83 2554.83 0 003.548 5.579" fill="#0055A3" clip-path="url(#b)"/><path d="M133.382 43.757c.325-.139.654-.28.984-.41 3.53 8.088 6.415 14.664 6.918 15.724 1.418 2.971 7.847 11.56 7.847 11.56l.237-.675s2.039-9.92 2.11-13.211c.022-1.172-.052-8.346-.159-17.166a66.069 66.069 0 011.621-.084 56.233 56.233 0 00-19.558 4.262m32.641 14.66c.452-1.096 3.02-7.941 6.148-16.32a56.475 56.475 0 00-16.956-2.652c.32 8.833.591 16.022.672 17.191.227 3.285 3.06 13.634 3.06 13.634l.339-.301c0 .001 5.483-8.509 6.737-11.552m27.134-4.169c-5.678 6.707-10.378 12.285-11.135 13.24-2.031 2.585-6.889 12.151-6.889 12.151l.89-.087s9.753-2.72 12.711-4.16c1.23-.601 7.791-4.034 15.128-7.884a56.796 56.796 0 00-13.658-15.778c1.012.805 2 1.644 2.953 2.518m-47.138 67.655s-6.856 7.45-8.61 10.235c-.798 1.265-4.438 7.517-8.242 14.074a56.07 56.07 0 0016.316 5.453c.831-6.46 1.871-14.585 2.055-16.559.3-3.277-.819-13.948-.819-13.948l-.7.745m44.185-70.173a56.396 56.396 0 00-14.363-8.33c-2.932 8.46-5.314 15.378-5.667 16.509-.973 3.145-2.073 13.816-2.073 13.816l.148-.752s8.175-5.979 10.437-8.369c.835-.881 5.686-6.316 11.518-12.874M75.103 122.9c-1.307.372-1.996.221-2.332-.852-.343-1.057.133-1.58 1.408-2.034 1.337-.479 39.504-12.781 42.589-13.926 3.088-1.145 12.219-6.771 12.219-6.771l-.569.106s-9.695-2.92-12.967-3.283c-3.272-.365-23.359-1.823-24.773-1.962-1.351-.136-1.937-.529-1.856-1.646.071-1.113.7-1.422 2.054-1.381 1.421.05 21.575.52 24.863.586 3.292.066 13.854-1.823 13.854-1.823l-.856-.315s-7.952-6.27-10.861-7.808c-2.911-1.536-24.334-11.465-25.598-12.115-1.208-.619-1.608-1.196-1.119-2.212.471-1.007 1.171-1.062 2.414-.525 1.303.562 23.148 9.595 26.186 10.864 3.036 1.267 13.555 3.378 13.555 3.378l-.381-.38s-5.126-8.734-7.277-11.224c-2.15-2.494-39.923-42.154-40.863-43.218-.9-1.019-1.063-1.704-.243-2.468.808-.768 1.483-.566 2.443.388 1.011.998 39.501 39.982 41.868 42.268 2.367 2.284 11.397 8.078 11.397 8.078l-.151-.776s-1.741-9.977-2.882-13.064c-.403-1.094-3.101-7.726-6.427-15.874a62.143 62.143 0 011.659-.762 56.59 56.59 0 00-15.474 10.031c-7.631-27.786-33.22-46.661-55.984-46.661H5.019v127.55h54.918c13.354.139 29.487-7.129 41.563-19.935-11.792 3.465-25.589 7.54-26.397 7.766m-19.418-19.52h-18.81V37.898H54.8c15.391-.094 33.093 11.533 33.115 33.041.021 18.31-16.087 32.482-32.23 32.441m106.526 32.231c-.872-3.173-5.692-12.762-5.692-12.762l-.403.171s-3.61 9.459-4.211 12.695c-.362 1.946-1.824 10.011-2.988 16.427 2.013.218 4.055.337 6.124.337 3.763 0 7.441-.378 11.001-1.078-1.955-8.163-3.532-14.698-3.831-15.79" fill="#E21937" clip-path="url(#b)"/></g><g transform="translate(-4.643 -4.122)"><defs><path id="c" d="M4.643 4.122h331.383v163.511H4.643z"/></defs><clipPath id="d"><use height="100%" width="100%" overflow="visible" xlink:href="#c"/></clipPath><path d="M127.495 145.32c-.532-.3-1.053-.612-1.575-.931 3.572-6.696 6.976-13.096 7.653-14.431 1.497-2.93 4.4-13.26 4.4-13.26l-.107-.423s-9.141 4.354-11.808 6.28c-.949.688-6.644 5.088-13.63 10.503a56.927 56.927 0 01-2.462-3.024c6.874-5.593 12.462-10.159 13.35-10.933 2.48-2.163 9.03-10.66 9.03-10.66l-.965.151s-10.091.839-13.269 1.696c-1.278.347-8.279 2.397-16.275 4.744l-.067-.177c4.611 13.003 13.845 23.819 25.725 30.465m79.429-75.201c11.521-6.042 22.731-12.844 23.447-13.226 1.195-.64 1.587-1.224 1.092-2.219-.489-1.014-1.189-1.06-2.432-.5-.704.318-10.869 6.217-22.092 11.733l-.025-2.622v-23.15l.003-1.399c6.45-7.289 11.592-13.701 11.945-14.108.883-1.023 1.04-1.708.224-2.46-.816-.773-1.492-.566-2.447.4-.332.333-4.321 5.255-9.712 11.092l-.013-2.472V15.751c-.6-2.981 6.264-11.629 15.806-11.629h16.404v58.505c8.892-15.083 25.816-26.391 45.896-26.362 33.456.049 53.737 23.012 50.706 60.268h-73.917c2.984 8.074 12.03 15.19 21.77 15.376 8.053.158 15.083-2.655 16.27-4.904h32.046c-6.857 19.079-25.085 31.308-46.694 31.308-20.113 0-37.143-9.561-46.075-25.378v9.589c.6 2.983-6.264 11.632-15.809 11.632h-16.401v-15.748c-6.769 15.619-20.376 27.582-37.053 32.105-1.754-8.201-3.149-14.765-3.35-15.878-.582-3.236-.54-13.361-.54-13.361l-.646-.896s7.997 7.15 9.979 9.784c1.11 1.477 5.728 8.043 9.708 13.702a55.31 55.31 0 002.931-1.969c-3.713-5.848-8.024-12.642-8.999-14.222-1.729-2.801-5.404-12.235-5.404-12.235l.188-.819s10.036 3.778 12.831 5.52c2.794 1.744 10.231 6.681 11.424 7.443 1.146.731 1.846.789 2.473-.133.644-.914.341-1.552-.754-2.358-1.139-.846-8.021-6.599-10.642-8.586-2.621-1.987-9.456-9.456-9.456-9.456l-.893-.748s10.73.152 13.947.843c3.218.693 27.646 6.32 29.031 6.636 1.318.3 1.999.114 2.277-.965.296-1.079-.205-1.577-1.508-1.965-1.359-.407-25.542-6.993-28.681-7.971-2.734-.852-9.876-4.532-11.687-5.473 2.189-.775 9.986-3.501 12.769-3.917 3.255-.489 53.892-7.409 55.295-7.604 1.344-.185 1.911-.598 1.795-1.706-.107-1.113-.751-1.405-2.107-1.308-1.416.097-52.15 6.04-55.434 6.229-3.29.189-13.333-1.058-13.333-1.058l-.959.17s7.917-7.243 10.73-8.95c1.167-.706 7.604-4.346 14.818-8.416a78.216 78.216 0 00-.87-1.68 56.56 56.56 0 012.119 4.351v-2.462l.009-.936m99.324 4.765c-4.176-9.043-13.421-12.625-21.174-12.625-6.863 0-15.209 2.09-21.775 12.625z" fill="#E21937" clip-path="url(#d)"/></g><g transform="translate(-4.643 -4.122)"><defs><path id="e" d="M4.643 4.125h331.383v166.607H4.643z"/></defs><clipPath id="f"><use height="100%" width="100%" overflow="visible" xlink:href="#e"/></clipPath><path d="M191.163 152.609c.795 1.091 1.433 1.397 2.35.767.935-.625.881-1.331.155-2.477l-3.549-5.579h-4.084c2.636 3.76 4.799 6.844 5.128 7.289" fill="#FFF100" clip-path="url(#f)"/><path d="M166.512 134.634c-.581-3.236-.543-13.364-.543-13.364l-.642-.893s7.997 7.147 9.973 9.781c1.114 1.482 5.731 8.046 9.709 13.708 1-.628 1.978-1.284 2.934-1.972-3.713-5.845-8.021-12.645-8.999-14.219-1.729-2.804-5.406-12.238-5.406-12.238l.189-.819s10.039 3.778 12.831 5.52c2.794 1.741 10.231 6.677 11.424 7.446 1.142.729 1.842.786 2.473-.136.644-.917.341-1.552-.75-2.358-1.146-.846-8.024-6.593-10.643-8.586-2.624-1.984-9.459-9.459-9.459-9.459l-.893-.745s10.728.152 13.947.843c3.218.69 27.649 6.32 29.031 6.636 1.318.303 1.999.117 2.277-.965.296-1.082-.205-1.577-1.508-1.968-1.356-.404-25.542-6.99-28.684-7.968-2.731-.854-9.873-4.529-11.684-5.469 2.189-.776 9.979-3.502 12.769-3.918 3.255-.489 53.888-7.414 55.295-7.607 1.344-.185 1.914-.595 1.795-1.702-.107-1.118-.751-1.405-2.107-1.312-1.419.101-52.15 6.041-55.437 6.23-3.287.189-13.333-1.06-13.333-1.06l-.952.175s7.907-7.248 10.727-8.949c1.167-.709 7.604-4.352 14.818-8.417a56.635 56.635 0 00-1.804-3.341c-7.337 3.85-13.895 7.283-15.124 7.881-2.959 1.444-12.715 4.163-12.715 4.163l-.89.087s4.854-9.566 6.892-12.149c.754-.957 5.454-6.534 11.132-13.242a58.654 58.654 0 00-2.949-2.518c-5.839 6.558-10.684 11.994-11.52 12.875-2.262 2.39-10.438 8.365-10.438 8.365l-.148.755s1.098-10.67 2.071-13.816c.352-1.131 2.734-8.053 5.668-16.507a56.823 56.823 0 00-3.669-1.31c-3.13 8.383-5.697 15.23-6.15 16.324-1.252 3.043-6.737 11.554-6.737 11.554l-.339.3s-2.829-10.349-3.058-13.634c-.082-1.169-.354-8.358-.669-17.191-.062 0-.12-.003-.178-.003-1.254 0-2.49.058-3.721.136.105 8.82.183 15.994.158 17.166-.071 3.291-2.109 13.209-2.109 13.209l-.239.676s-6.427-8.588-7.846-11.559c-.503-1.057-3.388-7.636-6.914-15.724a58.437 58.437 0 00-3.575 1.563c3.326 8.148 6.022 14.78 6.43 15.878 1.14 3.084 2.881 13.061 2.881 13.061l.148.776s-9.027-5.794-11.395-8.078C126.492 64.261 88 25.275 86.992 24.277c-.964-.953-1.639-1.153-2.443-.386-.823.765-.657 1.449.24 2.471.942 1.062 38.715 40.725 40.863 43.215 2.15 2.489 7.276 11.222 7.276 11.222l.382.382s-10.52-2.111-13.556-3.378c-3.037-1.27-24.879-10.303-26.186-10.866-1.242-.536-1.944-.48-2.416.527-.487 1.014-.083 1.593 1.125 2.212 1.263.65 22.686 10.577 25.598 12.115 2.906 1.538 10.857 7.808 10.857 7.808l.856.315s-10.562 1.89-13.85 1.823c-3.291-.066-23.446-.536-24.864-.586-1.353-.041-1.985.268-2.053 1.381-.081 1.12.503 1.508 1.855 1.646 1.412.139 21.502 1.597 24.771 1.959 3.271.366 12.967 3.283 12.967 3.283l.572-.104s-9.135 5.63-12.22 6.771c-3.088 1.142-41.254 13.449-42.592 13.923-1.275.46-1.75.98-1.405 2.037.333 1.072 1.021 1.224 2.33.852.808-.227 14.608-4.302 26.396-7.766.092-.095.182-.183.271-.277.021.06.046.116.067.177 7.994-2.35 14.997-4.397 16.275-4.744 3.175-.861 13.269-1.696 13.269-1.696l.963-.151s-6.551 8.5-9.031 10.66c-.885.77-6.476 5.337-13.346 10.933a54.12 54.12 0 002.462 3.021c6.981-5.412 12.677-9.815 13.629-10.503 2.669-1.928 11.81-6.28 11.81-6.28l.105.426s-2.903 10.33-4.398 13.26c-.678 1.338-4.083 7.731-7.655 14.434.521.313 1.044.631 1.577.928h-2.074c-4.138 7.759-8.342 15.625-8.688 16.288-.631 1.198-.628 1.901.346 2.45.968.559 1.578.199 2.289-.952.74-1.211 16.285-28.183 18.039-30.965 1.754-2.784 8.61-10.238 8.61-10.238l.697-.744s1.125 10.674.82 13.948c-.303 3.276-2.972 23.523-3.119 24.933-.143 1.348.122 2 1.229 2.148 1.108.161 1.541-.395 1.771-1.731.241-1.4 3.887-21.509 4.485-24.744.601-3.236 4.212-12.695 4.212-12.695l.407-.164s4.816 9.585 5.687 12.758c.489 1.767 4.335 17.878 7.707 32.021h3.624c-3.095-14.397-6.694-31.158-7.023-33m-11.676-21.354c-9.782 0-17.715-7.93-17.715-17.714 0-9.782 7.933-17.715 17.715-17.715 9.783 0 17.716 7.933 17.716 17.715 0 9.785-7.932 17.714-17.716 17.714m52.079-74.543c6.453-7.289 11.595-13.702 11.948-14.108.886-1.024 1.04-1.711.224-2.463-.816-.77-1.492-.563-2.447.403-.332.333-4.324 5.255-9.712 11.091l-.013 5.077" fill="#FFF100" clip-path="url(#f)"/><path d="M206.921 70.121c11.528-6.044 22.734-12.846 23.447-13.228 1.198-.639 1.59-1.224 1.092-2.222-.486-1.011-1.189-1.055-2.429-.497-.707.32-10.869 6.217-22.092 11.733l-.018 4.214" fill="#FFF100" clip-path="url(#f)"/></g></svg>