<?xml version="1.0" encoding="UTF-8"?>
<svg id="Capa_2" data-name="Capa 2" xmlns="http://www.w3.org/2000/svg" viewBox="0 0 177.77 32.73">
  <defs>
    <style>
      .cls-1 {
        fill: #e6181d;
      }

      .cls-1, .cls-2 {
        stroke-width: 0px;
      }

      .cls-2 {
        fill: #030303;
      }
    </style>
  </defs>
  <g id="Layer_1" data-name="Layer 1">
    <g>
      <path class="cls-2" d="M0,15.18c.07-.02.08-.07.09-.13.48-2.55,1.97-4.45,3.97-5.99,2.52-1.94,5.41-3.07,8.52-3.6,4.02-.68,8.02-.62,11.98.43,2.85.75,5.45,2.01,7.62,4.04,1.65,1.55,2.79,3.39,3.01,5.69.19,1.94-.36,3.69-1.44,5.28-1.52,2.21-3.65,3.67-6.07,4.76-2.72,1.23-5.6,1.84-8.57,2-3.84.2-7.58-.31-11.15-1.81-2.48-1.04-4.68-2.48-6.31-4.68-.74-1-1.26-2.11-1.52-3.34-.02-.1.02-.25-.13-.3v-2.35ZM19.06,26.33c1.2-.06,2.3-.23,3.38-.5,2.98-.73,5.69-1.98,7.8-4.27,2.17-2.37,3-5.09,1.92-8.23-.32-.94-.83-1.77-1.52-2.61.03,1.22-.56,2.02-1.36,2.72-.34.3-.71.55-1.11.78-1.84,1.06-3.86,1.59-5.93,1.93-.28.05-.33.14-.33.4.03,1.27-.06,2.53-.27,3.77-.38,2.17-.92,4.28-2.58,6.02ZM16.08,26.31c-.86-.87-1.38-1.91-1.77-3.02-.77-2.16-1.04-4.41-1-6.69,0-.29-.06-.4-.38-.45-1.77-.29-3.52-.71-5.13-1.53-1.59-.81-3.11-1.72-3.27-3.79-.19.09-.27.26-.37.4-2.3,3.25-2.1,7.1.6,10.1,3.01,3.35,6.98,4.59,11.32,4.97ZM16.87,6.51c-.39.02-.98.04-1.56.09-1.93.17-3.83.49-5.62,1.26-.65.28-1.27.63-1.75,1.17-.63.72-.61,1.48.05,2.17.27.29.58.52.92.72,1.36.79,2.87,1.13,4.4,1.42.28.05.25-.14.27-.29.15-.98.39-1.94.73-2.88.41-1.12.91-2.2,1.86-2.99.92-.77,1.91-.77,2.84-.03.46.37.82.84,1.12,1.35.7,1.2,1.1,2.5,1.37,3.84.07.33.05.86.25.95.26.13.69-.05,1.04-.13,1.43-.32,2.84-.7,4.04-1.6,1.21-.91,1.21-2.01.03-2.94-.67-.53-1.44-.86-2.25-1.13-2.45-.81-4.98-1.02-7.74-1ZM16.58,16.5c-.28-.02-.81-.03-1.34-.08-.25-.02-.33.04-.32.3.06,1.45.28,2.87.83,4.22.2.49.45.95.82,1.34.66.69,1.43.67,2.08-.03.27-.29.48-.62.64-.97.69-1.45.9-3.01.99-4.59.02-.26-.09-.28-.31-.26-1.05.07-2.11.13-3.4.08ZM17.6,13.71c.75-.04,1.48-.07,2.22-.11.13,0,.31.02.26-.24-.21-1.06-.48-2.11-1.07-3.04-.85-1.34-1.95-1.34-2.82,0-.59.91-.84,1.95-1.06,3-.05.24.07.28.26.29.74.03,1.47.07,2.2.11Z"/>
      <path class="cls-2" d="M45.75,0c-.09.17-.04.36-.04.53,0,10.55,0,21.11,0,31.66,0,.45-.12.57-.55.53-.42-.04-.85-.02-1.27,0-.27.01-.35-.09-.32-.33.01-.09,0-.18,0-.27,0-10.52,0-21.05,0-31.57,0-.18,0-.36-.01-.54.72,0,1.45,0,2.17,0Z"/>
      <path class="cls-1" d="M140.08,27.3c-2.39,0-4.38-.19-6.31-.81-3.2-1.03-5.18-3.18-5.96-6.43-.56-2.33-.62-4.68-.13-7.03.72-3.44,2.81-5.72,6.15-6.75,3.9-1.19,7.86-1.18,11.77-.04,3.4,1,5.44,3.32,6.16,6.77.5,2.42.49,4.85-.13,7.25-.88,3.43-3.15,5.47-6.51,6.4-.7.19-1.41.34-2.12.43-1.09.14-2.19.23-2.92.21ZM146.42,16.13c0-.53-.06-1.3-.19-2.05-.46-2.63-2-4.3-4.47-4.83-1.1-.23-2.21-.24-3.33-.12-2.5.27-4.3,1.7-4.94,4.04-.6,2.2-.54,4.41.09,6.59.59,2.01,1.96,3.21,4.01,3.66,1.12.24,2.24.27,3.37.16,2.64-.25,4.43-1.76,5.12-4.31.26-.95.34-1.92.34-3.14Z"/>
      <path class="cls-1" d="M102.48,26.85h-.52c-1.62,0-3.23-.01-4.85,0-.39,0-.62-.11-.83-.44-1.62-2.48-3.27-4.95-4.88-7.43-.2-.31-.42-.4-.77-.39-1.03.02-2.05,0-3.08.01-.28,0-.36-.08-.36-.36.01-1.01.02-2.02,0-3.03,0-.32.12-.37.4-.37,1.6,0,3.2,0,4.8-.02.66,0,1.33-.07,1.96-.28,1.08-.35,1.63-1.15,1.64-2.32,0-1.18-.51-1.92-1.6-2.29-.99-.34-2.02-.32-3.04-.33-1.93-.03-3.86,0-5.8-.02-.41,0-.53.1-.53.52.01,5.4,0,10.81.02,16.22,0,.42-.09.56-.54.55-1.45-.03-2.9-.02-4.35,0-.27,0-.36-.05-.36-.34,0-6.78,0-13.55,0-20.33,0-.25.05-.34.32-.34,4.63.01,9.27,0,13.9.04,1.28.01,2.55.25,3.76.72,2.03.79,3.16,2.28,3.44,4.42.14,1.04.11,2.07-.15,3.09-.56,2.18-2.09,3.32-4.18,3.85-.17.04-.35.08-.56.13,2.05,2.91,4.08,5.8,6.17,8.75Z"/>
      <path class="cls-1" d="M163.09,26.85c-2.48,0-4.95,0-7.43,0-.33,0-.44-.07-.43-.42.03-.96.03-1.93,0-2.89-.01-.38.1-.48.47-.48,4.27.01,8.54.01,12.82,0,.69,0,1.39-.04,2.06-.21,1.16-.3,1.74-1.02,1.73-2.15,0-1.19-.56-1.91-1.72-2.21-.51-.13-1.04-.18-1.57-.18-2.4,0-4.8,0-7.2-.03-1.41-.02-2.8-.18-4.13-.67-2.03-.74-3.14-2.21-3.39-4.33-.13-1.07-.08-2.13.21-3.18.58-2.1,2.06-3.25,4.09-3.8,1.2-.32,2.43-.47,3.67-.47,4.62,0,9.24,0,13.86,0,.34,0,.46.07.45.44-.03.95-.03,1.9,0,2.85.01.37-.08.47-.46.47-4.06-.02-8.12-.01-12.18,0-.77,0-1.54.05-2.28.26-1.14.32-1.83,1.09-1.93,2.13-.13,1.45.65,2.36,2.23,2.55.45.05.9.08,1.35.08,2.6.01,5.19,0,7.79.02.94,0,1.86.15,2.77.38,2.39.61,3.72,2.2,3.87,4.67.06,1.07.06,2.14-.29,3.17-.66,1.96-2.12,3-4.04,3.52-1.32.36-2.67.47-4.03.47-2.1,0-4.2,0-6.3,0Z"/>
      <path class="cls-1" d="M117.22,18.06c-2.26,0-4.53,0-6.79,0-.38,0-.46.11-.41.46.07.55.11,1.11.27,1.64.53,1.83,1.9,2.61,3.67,2.88.67.1,1.35.14,2.03.14,2.67,0,5.34,0,8.02,0,.37,0,.49.08.48.47-.03.96-.02,1.93,0,2.89,0,.25-.07.34-.33.34-3.29-.02-6.58,0-9.87-.04-1.33-.02-2.64-.24-3.91-.65-3.23-1.04-5.24-3.22-5.96-6.53-.5-2.33-.41-4.67.18-6.98.9-3.48,3.22-5.5,6.66-6.33,1.32-.32,2.67-.47,4.03-.47,2.91,0,5.83,0,8.74,0,.34,0,.47.07.46.44-.03.93-.03,1.87,0,2.8,0,.35-.08.46-.45.45-2.79-.02-5.59-.01-8.38,0-1.13,0-2.23.17-3.24.7-1.59.83-2.22,2.25-2.39,3.95-.02.18.06.2.2.2.11,0,.21,0,.32,0,4.47,0,8.94,0,13.41-.01.45,0,.55.13.53.55-.03.89-.03,1.78,0,2.66.01.37-.08.48-.47.48-2.26-.02-4.53,0-6.79,0Z"/>
      <path class="cls-1" d="M66.58,5.87c3.43,0,6.85,0,10.28,0,.35,0,.45.09.44.44-.03.95-.03,1.9,0,2.84,0,.35-.1.42-.43.42-2.37-.01-4.74,0-7.11-.02-.44,0-.51.14-.51.53.01,5.42,0,10.84.02,16.26,0,.4-.08.53-.51.53-1.48-.03-2.96-.03-4.44,0-.43,0-.48-.14-.48-.51.01-5.42,0-10.84.02-16.26,0-.42-.08-.55-.53-.55-2.35.03-4.71,0-7.06.02-.35,0-.43-.1-.43-.43.02-.95.03-1.9,0-2.84-.01-.38.13-.43.46-.43,3.43.01,6.85,0,10.28,0Z"/>
    </g>
  </g>
</svg>